Coordinates
version=1
nRows=13
nColumns=40
inDegrees=yes

Units are S.I. units (second, meters, Newtons, ...)
Angles are in degrees.

endheader
time	pelvis_tilt	pelvis_list	pelvis_rotation	pelvis_tx	pelvis_ty	pelvis_tz	hip_flexion_r	hip_adduction_r	hip_rotation_r	knee_angle_r	knee_angle_r_beta	ankle_angle_r	subtalar_angle_r	mtp_angle_r	hip_flexion_l	hip_adduction_l	hip_rotation_l	knee_angle_l	knee_angle_l_beta	ankle_angle_l	subtalar_angle_l	mtp_angle_l	lumbar_extension	lumbar_bending	lumbar_rotation	arm_flex_r	arm_add_r	arm_rot_r	elbow_flex_r	pro_sup_r	wrist_flex_r	wrist_dev_r	arm_flex_l	arm_add_l	arm_rot_l	elbow_flex_l	pro_sup_l	wrist_flex_l	wrist_dev_l
      1.29000000	      0.48801795	      1.53880539	      9.09255074	      0.35693517	      0.88651372	     -1.50656073	     28.58356761	     -4.69679931	    -15.89877695	    -28.49547536	     -0.49733987	      5.00056192	    -12.20951390	     16.91868145	     -3.79144055	      0.31993254	     11.40872551	    -25.96360139	     -0.45315033	     12.10968719	      1.47104688	     -7.28018946	     -6.26405638	     -3.67890121	    -13.49213570	    -11.42451195	     -7.73269207	    -16.32772981	     26.97886590	     89.95437384	      0.00000000	      0.00000000	      1.34635288	     17.41872567	     19.36472966	     66.37937748	     89.95437384	      0.00000000	      0.00000000
      1.30000000	     -0.03828571	      1.74615223	      9.32695853	      0.36899295	      0.88467070	     -1.50681787	     29.30701771	     -5.05622432	    -16.57611142	    -25.91389691	     -0.45228282	      5.44619723	    -11.17216691	     16.68553184	     -4.02080847	      0.21807806	     11.07659826	    -26.08833642	     -0.45532737	     11.74027417	      1.23504139	     -7.26406251	     -5.71305496	     -3.88347959	    -13.85631464	    -11.74166620	     -7.75469234	    -16.81208195	     26.37174459	     89.95437384	      0.00000000	      0.00000000	      1.52538979	     17.85706272	     19.37369820	     67.66423213	     89.95437384	      0.00000000	      0.00000000
      1.31000000	     -0.24508773	      1.67964061	      9.81857457	      0.38153922	      0.88317416	     -1.50722978	     29.65954850	     -5.44543131	    -18.62610647	    -23.94193850	     -0.41786566	      6.16910953	     -9.08171095	     15.97999117	     -4.41557095	      0.63265473	     10.86209695	    -26.49384641	     -0.46240485	     11.50401128	      0.61028588	     -7.48853307	     -5.44163673	     -3.71805988	    -14.42310400	    -11.93735864	     -7.66996959	    -17.88876894	     25.51317167	     89.95437384	      0.00000000	      0.00000000	      1.72188913	     18.18919690	     19.46010860	     68.83125213	     89.95437384	      0.00000000	      0.00000000
      1.32000000	     -0.63076034	      1.95640796	      9.69154446	      0.39409429	      0.88132167	     -1.50703043	     30.45256429	     -5.76809491	    -19.49803222	    -22.63056034	     -0.39497779	      6.48615155	     -8.89755291	     15.84045376	     -4.83700939	      0.46182482	     10.85282482	    -26.66147519	     -0.46533053	     11.32760350	      0.55395810	     -7.46370507	     -4.99549248	     -3.96800523	    -14.27470834	    -12.40898535	     -7.77032042	    -18.06661539	     25.16159597	     89.95437384	      0.00000000	      0.00000000	      1.99318452	     18.45080026	     19.41765691	     69.86010142	     89.95437384	      0.00000000	      0.00000000
      1.33000000	     -0.83267158	      1.59619935	     10.51129577	      0.40698597	      0.87980597	     -1.50735827	     30.53879214	     -5.96401857	    -22.13214488	    -21.19261790	     -0.36988096	      6.85190456	     -6.03537981	     14.68479876	     -4.91006547	      1.30825666	     10.16049348	    -27.54704853	     -0.48078670	     10.78962129	     -0.11464761	     -7.72259759	     -4.64660064	     -3.49667706	    -15.20645837	    -12.49062299	     -7.58407334	    -19.60937731	     24.44605841	     89.95437384	      0.00000000	      0.00000000	      1.93708479	     18.85495253	     19.46898543	     70.91729614	     89.95437384	      0.00000000	      0.00000000
      1.34000000	     -1.09794402	      1.73283468	     10.59605371	      0.42030354	      0.87814705	     -1.50712628	     30.84786835	     -6.06466941	    -22.78542459	    -20.35689687	     -0.35529488	      7.03424359	     -5.64011669	     14.40523088	     -5.31609334	      1.36384502	      9.80944333	    -27.92544130	     -0.48739090	     10.21169239	     -0.09448688	     -7.66255259	     -4.21813329	     -3.58058162	    -15.34934447	    -12.91942404	     -7.66607602	    -19.77661883	     24.04573963	     89.95437384	      0.00000000	      0.00000000	      1.92723691	     19.19540226	     19.40532307	     71.73615623	     89.95437384	      0.00000000	      0.00000000
      1.35000000	     -1.03810768	      1.57538415	     11.10763507	      0.43380433	      0.87694720	     -1.50746260	     30.60181654	     -6.03589662	    -23.83317734	    -19.80507880	     -0.34566383	      7.08591197	     -4.82162077	     13.97137283	     -5.78957732	      1.86202783	      8.89063336	    -28.69004498	     -0.50073575	      9.43902717	     -0.00604877	     -7.64375379	     -4.10978559	     -3.23517688	    -15.92554591	    -13.13389261	     -7.75609873	    -20.04628416	     23.37296170	     89.95437384	      0.00000000	      0.00000000	      1.85865569	     19.35751161	     19.57110924	     72.58294749	     89.95437384	      0.00000000	      0.00000000
      1.36000000	     -1.20191830	      1.74965418	     11.06534916	      0.44780691	      0.87531207	     -1.50735707	     30.79633543	     -6.07225878	    -23.58872312	    -20.02986174	     -0.34958704	      6.87628096	     -4.67481918	     13.69768028	     -6.27600601	      1.88270863	      8.58476380	    -29.21877882	     -0.50996389	      9.11117195	      0.01291779	     -7.50526094	     -3.68694719	     -3.27849995	    -15.84171219	    -13.72508006	     -7.88666517	    -20.03620480	     23.34273354	     89.95437384	      0.00000000	      0.00000000	      1.92874042	     19.40854730	     19.61708784	     72.89658676	     89.95437384	      0.00000000	      0.00000000
      1.37000000	     -0.87603946	      1.56227753	     11.52510250	      0.46222887	      0.87434852	     -1.50755509	     30.08018320	     -5.84782706	    -24.30844202	    -20.14969735	     -0.35167856	      6.89025996	     -4.85117714	     13.44263977	     -6.97433664	      2.43740095	      7.49734522	    -30.09633497	     -0.52528014	      8.00227607	      0.47835968	     -7.37113974	     -3.79574130	     -2.87098017	    -16.42968793	    -13.82252495	     -7.98769355	    -20.40926442	     22.68341809	     89.95437384	      0.00000000	      0.00000000	      1.42205709	     19.68009980	     19.60900595	     73.96395813	     89.95437384	      0.00000000	      0.00000000
      1.38000000	     -0.52844182	      1.50182204	     11.80415595	      0.47711108	      0.87343739	     -1.50787782	     29.30411085	     -5.63944880	    -24.55224397	    -20.61211120	     -0.35974921	      6.78652347	     -5.27200792	     13.18516023	     -7.81828920	      2.77456250	      6.47816144	    -30.83269072	     -0.53813197	      7.14097067	      1.09433895	     -7.30004980	     -3.84319436	     -2.53511533	    -16.73347058	    -14.12227693	     -8.12968430	    -20.68864712	     22.33461278	     89.95437384	      0.00000000	      0.00000000	      1.16816958	     19.53823292	     19.90512692	     74.45488492	     89.95437384	      0.00000000	      0.00000000
      1.39000000	     -0.49483922	      1.54169220	     11.71655429	      0.49206126	      0.87183820	     -1.50773044	     29.03053622	     -5.41953868	    -23.95373065	    -21.63288951	     -0.37756515	      6.43223696	     -5.43170974	     12.83515001	     -8.30135974	      2.87879184	      5.69397529	    -31.71400034	     -0.55351372	      6.26512453	      1.26336308	     -7.07672394	     -3.53282523	     -2.37662478	    -16.55815644	    -14.68013296	     -8.31003342	    -20.67711779	     22.33025501	     89.95437384	      0.00000000	      0.00000000	      0.84869736	     19.49684594	     19.85598170	     74.85945278	     89.95437384	      0.00000000	      0.00000000
      1.40000000	     -0.11591796	      1.55077452	     11.88870292	      0.50749512	      0.87090211	     -1.50764307	     28.12161156	     -4.97269839	    -23.31553826	    -22.30286007	     -0.38925834	      5.18565371	     -8.45617772	     12.99146212	     -9.15592122	      3.09052741	      4.60228698	    -32.45720974	     -0.56648518	      4.82287072	      2.99818578	     -7.11940565	     -3.56889372	     -2.15539146	    -16.79996743	    -14.91233206	     -8.44683462	    -20.70909215	     21.91706746	     89.95437384	      0.00000000	      0.00000000	      0.30526619	     19.45925784	     20.01758406	     75.33472031	     89.95437384	      0.00000000	      0.00000000
      1.41000000	     -0.05922129	      1.53457540	     11.80784431	      0.52270261	      0.86937127	     -1.50715247	     27.96656518	     -4.88136111	    -23.71219024	    -23.55506232	     -0.41111339	      3.67330858	     -9.18503326	     12.91351137	     -9.46391408	      3.36246083	      4.11717385	    -33.53982211	     -0.58538033	      3.12420959	      3.29461271	     -6.87745486	     -3.24009665	     -1.96111002	    -16.64314286	    -15.28488841	     -8.55917716	    -20.95977579	     21.78880597	     89.95437384	      0.00000000	      0.00000000	     -0.18327990	     19.40096822	     19.93724897	     75.60342856	     89.95437384	      0.00000000	      0.00000000
